M48
;Layer_Color=9474304
;FILE_FORMAT=2:5
INCH,LZ
;TYPE=PLATED
T01F00S00C0.00787
T02F00S00C0.03150
T03F00S00C0.03701
T04F00S00C0.06378
T05F00S00C0.08661
%
T01
X0005906Y0005906
X0129921
Y0041339
Y0071653
X0100394
X0102362Y006811
X0094488Y0063583
X0092126Y0061417
X0080315Y0061811
X0076772Y0070472
X0074803Y0076772
X0072441Y0082284
X0062992Y0082677
X0065748Y0076772
X0035433Y0082677
X0005906
Y0045276
X0108661Y0080315
T02
X0058661Y0136811
X0078347
T03
X0051398Y0044291
X0061398
X0071398
X0081398
X0076398Y0054291
X0066398
X0056398
X0086398
T04
X003689Y0039803
X0100906
T05
X0011811Y0100394
Y0173228
X0125984
Y0100394
M30
