G04*
G04 #@! TF.GenerationSoftware,Altium Limited,Altium Designer,24.5.1 (21)*
G04*
G04 Layer_Physical_Order=1*
G04 Layer_Color=255*
%FSLAX25Y25*%
%MOIN*%
G70*
G04*
G04 #@! TF.SameCoordinates,40B6127D-9DCA-48F2-A9B9-7EA9BB6FB6DE*
G04*
G04*
G04 #@! TF.FilePolarity,Positive*
G04*
G01*
G75*
%ADD11C,0.00787*%
%ADD16R,0.06102X0.01575*%
%ADD17R,0.03000X0.03400*%
%ADD18R,0.02400X0.03400*%
%ADD29C,0.01968*%
%ADD30C,0.03937*%
%ADD31C,0.12992*%
%ADD32C,0.09567*%
%ADD33R,0.05701X0.05701*%
%ADD34C,0.05701*%
%ADD35C,0.18898*%
%ADD36C,0.06299*%
%ADD37C,0.01968*%
G36*
X85989Y74842D02*
Y73353D01*
X85658D01*
Y68379D01*
X85989D01*
Y67448D01*
X85658D01*
Y65526D01*
X85653Y65522D01*
X84095Y63964D01*
X83633Y64156D01*
Y67448D01*
X79658D01*
Y64176D01*
X79569Y64087D01*
X79308Y63696D01*
X79216Y63235D01*
X79216Y63235D01*
Y63218D01*
X78813Y62815D01*
X78543Y62163D01*
Y61459D01*
X78813Y60808D01*
X79111Y60510D01*
Y58707D01*
X77981Y57578D01*
X77802Y57681D01*
X76877Y57929D01*
X76087D01*
X75853Y58402D01*
X77623Y60172D01*
X77623Y60172D01*
X77884Y60563D01*
X77976Y61024D01*
X77976Y61024D01*
Y69162D01*
X79658D01*
Y68379D01*
X83633D01*
Y73353D01*
X79658D01*
Y71570D01*
X78179D01*
X77775Y71974D01*
X77124Y72244D01*
X76419D01*
X75768Y71974D01*
X75270Y71476D01*
X75000Y70825D01*
Y70120D01*
X75270Y69469D01*
X75567Y69171D01*
Y61522D01*
X70546Y56501D01*
X70285Y56111D01*
X70237Y55869D01*
X70179Y55846D01*
X69717Y55818D01*
X69309Y56525D01*
X68631Y57202D01*
X67802Y57681D01*
X67602Y57735D01*
Y62473D01*
X67885D01*
Y64969D01*
X68175Y65027D01*
X68566Y65288D01*
X69448Y66170D01*
X69910Y65979D01*
Y62473D01*
X73885D01*
Y67448D01*
X73704D01*
Y68379D01*
X73885D01*
Y73353D01*
X73704D01*
Y74693D01*
X73977Y74965D01*
X85866D01*
X85989Y74842D01*
D02*
G37*
G36*
X135788Y2007D02*
X2007D01*
X2007Y86614D01*
X37402D01*
Y45374D01*
X36156D01*
X34740Y44994D01*
X33469Y44261D01*
X32432Y43224D01*
X31699Y41953D01*
X31319Y40537D01*
Y39070D01*
X31699Y37653D01*
X32432Y36383D01*
X33469Y35345D01*
X34740Y34612D01*
X36156Y34232D01*
X37623D01*
X39040Y34612D01*
X39442Y34844D01*
X40818Y33468D01*
X41394Y33026D01*
X42064Y32748D01*
X42783Y32653D01*
X95012D01*
X95731Y32748D01*
X96402Y33026D01*
X96978Y33468D01*
X98354Y34844D01*
X98755Y34612D01*
X100172Y34232D01*
X101639D01*
X103056Y34612D01*
X104326Y35345D01*
X105363Y36383D01*
X106097Y37653D01*
X106476Y39070D01*
Y40537D01*
X106097Y41953D01*
X105363Y43224D01*
X104326Y44261D01*
X103056Y44994D01*
X101639Y45374D01*
X100172D01*
X98755Y44994D01*
X97485Y44261D01*
X96448Y43224D01*
X95714Y41953D01*
X95335Y40537D01*
Y39687D01*
X93861Y38213D01*
X57087D01*
Y45276D01*
X57484Y45673D01*
X57932Y45414D01*
X57760Y44770D01*
Y43812D01*
X58008Y42887D01*
X58487Y42058D01*
X59164Y41380D01*
X59993Y40901D01*
X60919Y40653D01*
X61877D01*
X62802Y40901D01*
X63631Y41380D01*
X64309Y42058D01*
X64788Y42887D01*
X65035Y43812D01*
Y44770D01*
X64788Y45695D01*
X64309Y46525D01*
X64097Y46737D01*
X64105Y46748D01*
X64196Y47209D01*
X64196Y47209D01*
Y50862D01*
X64629Y51112D01*
X64994Y50901D01*
X65919Y50653D01*
X66877D01*
X67802Y50901D01*
X68631Y51380D01*
X69309Y52058D01*
X69693Y52724D01*
X70193Y52590D01*
Y47735D01*
X69994Y47681D01*
X69164Y47202D01*
X68487Y46525D01*
X68008Y45695D01*
X67760Y44770D01*
Y43812D01*
X68008Y42887D01*
X68487Y42058D01*
X69164Y41380D01*
X69994Y40901D01*
X70919Y40653D01*
X71877D01*
X72802Y40901D01*
X73631Y41380D01*
X74309Y42058D01*
X74787Y42887D01*
X75035Y43812D01*
Y44770D01*
X74787Y45695D01*
X74309Y46525D01*
X73631Y47202D01*
X72802Y47681D01*
X72602Y47735D01*
Y52590D01*
X73102Y52724D01*
X73487Y52058D01*
X74164Y51380D01*
X74993Y50901D01*
X75919Y50653D01*
X76877D01*
X77802Y50901D01*
X78631Y51380D01*
X79091Y51840D01*
X79591Y51633D01*
Y47449D01*
X79164Y47202D01*
X78487Y46525D01*
X78008Y45695D01*
X77760Y44770D01*
Y43812D01*
X78008Y42887D01*
X78487Y42058D01*
X79164Y41380D01*
X79993Y40901D01*
X80919Y40653D01*
X81877D01*
X82802Y40901D01*
X83631Y41380D01*
X84309Y42058D01*
X84787Y42887D01*
X85035Y43812D01*
Y44770D01*
X84787Y45695D01*
X84309Y46525D01*
X83631Y47202D01*
X83204Y47449D01*
Y51333D01*
X83704Y51540D01*
X84034Y51210D01*
X84912Y50703D01*
X85891Y50441D01*
X85898D01*
Y54291D01*
Y58254D01*
X85593Y58518D01*
X85617Y58642D01*
Y60378D01*
X87713Y62473D01*
X89633D01*
Y65123D01*
X92816D01*
X93023Y64623D01*
X92986Y64586D01*
X92716Y63935D01*
Y63631D01*
X92490Y63210D01*
X92255Y63189D01*
X91774D01*
X91122Y62919D01*
X90624Y62421D01*
X90354Y61770D01*
Y61065D01*
X90624Y60414D01*
X91122Y59915D01*
X91774Y59646D01*
X92195D01*
X93637Y58204D01*
X93637Y58204D01*
X94027Y57943D01*
X94488Y57851D01*
X94488Y57851D01*
X114173D01*
X114173Y57851D01*
X114634Y57943D01*
X115025Y58204D01*
X121857Y65036D01*
X123917D01*
X123917Y65036D01*
X124034Y65059D01*
X128150D01*
Y69964D01*
X128362D01*
Y71252D01*
X124311D01*
Y72252D01*
X128362D01*
Y73539D01*
X128150D01*
Y75886D01*
X125143D01*
X125002Y75980D01*
X124311Y76117D01*
X121043D01*
X120948Y76212D01*
Y77828D01*
X121429D01*
Y82802D01*
X116854D01*
Y77828D01*
X117335D01*
Y75464D01*
X117411Y75084D01*
X114864Y72537D01*
X114473Y71951D01*
X114335Y71260D01*
Y69207D01*
X112517Y67388D01*
X112024Y67603D01*
Y68693D01*
X107972D01*
X103921D01*
Y67405D01*
Y67134D01*
X107973D01*
Y66134D01*
X103921D01*
Y65192D01*
X101536D01*
X98521Y68206D01*
X97935Y68598D01*
X97244Y68735D01*
X89633D01*
Y73353D01*
X89602D01*
Y75590D01*
X89464Y76282D01*
X89073Y76868D01*
X87892Y78049D01*
X87305Y78440D01*
X86614Y78578D01*
X74062D01*
X73645Y79046D01*
X73645Y79047D01*
Y80982D01*
X73742Y81079D01*
X99501D01*
X104298Y76282D01*
X104134Y75886D01*
X104134D01*
Y72956D01*
X101596D01*
X101397Y73155D01*
X100746Y73425D01*
X100041D01*
X99390Y73155D01*
X98892Y72657D01*
X98622Y72006D01*
Y71301D01*
X98892Y70650D01*
X99390Y70152D01*
X100041Y69882D01*
X100746D01*
X101397Y70152D01*
X101793Y70548D01*
X103921D01*
Y69693D01*
X107972D01*
X112024D01*
Y70980D01*
X111811D01*
Y75886D01*
X107656D01*
X107578Y76279D01*
X107317Y76670D01*
X107317Y76670D01*
X100852Y83135D01*
X100461Y83396D01*
X100000Y83488D01*
X100000Y83488D01*
X73742D01*
X73444Y83785D01*
X72793Y84055D01*
X72088D01*
X71437Y83785D01*
X70939Y83287D01*
X70669Y82636D01*
Y81931D01*
X70939Y81280D01*
X71237Y80982D01*
Y79545D01*
X68665Y76974D01*
X68404Y76583D01*
X68312Y76122D01*
X68312Y76122D01*
Y73529D01*
X67885Y73353D01*
Y73353D01*
X67102D01*
Y75620D01*
X67250Y75768D01*
X67520Y76419D01*
Y77124D01*
X67250Y77775D01*
X66752Y78274D01*
X66100Y78543D01*
X65396D01*
X64745Y78274D01*
X64246Y77775D01*
X63976Y77124D01*
Y76419D01*
X64246Y75768D01*
X64693Y75321D01*
Y73353D01*
X63910D01*
Y70082D01*
X62665Y68837D01*
X62404Y68446D01*
X62312Y67985D01*
X62312Y67985D01*
Y60078D01*
X61524Y59290D01*
X61485Y59291D01*
X61024Y59446D01*
Y86614D01*
X135788D01*
Y2007D01*
D02*
G37*
%LPC*%
G36*
X115642Y83015D02*
X113642D01*
Y80815D01*
X115642D01*
Y83015D01*
D02*
G37*
G36*
X112642D02*
X110642D01*
Y80815D01*
X112642D01*
Y83015D01*
D02*
G37*
G36*
X115642Y79815D02*
X113642D01*
Y77615D01*
X115642D01*
Y79815D01*
D02*
G37*
G36*
X112642D02*
X110642D01*
Y77615D01*
X112642D01*
Y79815D01*
D02*
G37*
G36*
X86905Y58142D02*
X86898D01*
Y54791D01*
X90248D01*
Y54798D01*
X89986Y55778D01*
X89479Y56656D01*
X88762Y57372D01*
X87884Y57879D01*
X86905Y58142D01*
D02*
G37*
G36*
X90248Y53791D02*
X86898D01*
Y50441D01*
X86905D01*
X87884Y50703D01*
X88762Y51210D01*
X89479Y51927D01*
X89986Y52805D01*
X90248Y53784D01*
Y53791D01*
D02*
G37*
G36*
X94615Y19094D02*
X93180D01*
X91773Y18815D01*
X90448Y18266D01*
X89255Y17469D01*
X88240Y16454D01*
X87443Y15261D01*
X86894Y13936D01*
X86614Y12528D01*
Y11094D01*
X86894Y9686D01*
X87443Y8361D01*
X88240Y7168D01*
X89255Y6154D01*
X90448Y5356D01*
X91773Y4808D01*
X93180Y4528D01*
X94615D01*
X96022Y4808D01*
X97348Y5356D01*
X98541Y6154D01*
X99555Y7168D01*
X100352Y8361D01*
X100901Y9686D01*
X101181Y11094D01*
Y12528D01*
X100901Y13936D01*
X100352Y15261D01*
X99555Y16454D01*
X98541Y17469D01*
X97348Y18266D01*
X96022Y18815D01*
X94615Y19094D01*
D02*
G37*
G36*
X44615D02*
X43180D01*
X41773Y18815D01*
X40448Y18266D01*
X39255Y17469D01*
X38240Y16454D01*
X37443Y15261D01*
X36894Y13936D01*
X36614Y12528D01*
Y11094D01*
X36894Y9686D01*
X37443Y8361D01*
X38240Y7168D01*
X39255Y6154D01*
X40448Y5356D01*
X41773Y4808D01*
X43180Y4528D01*
X44615D01*
X46022Y4808D01*
X47348Y5356D01*
X48541Y6154D01*
X49555Y7168D01*
X50352Y8361D01*
X50901Y9686D01*
X51181Y11094D01*
Y12528D01*
X50901Y13936D01*
X50352Y15261D01*
X49555Y16454D01*
X48541Y17469D01*
X47348Y18266D01*
X46022Y18815D01*
X44615Y19094D01*
D02*
G37*
%LPD*%
D11*
X97047Y61024D02*
X112992D01*
X120769Y68801D01*
X94488Y63583D02*
X97047Y61024D01*
X92126Y61417D02*
X94488Y59055D01*
X114173D02*
X121358Y66240D01*
X94488Y59055D02*
X114173D01*
X120769Y68801D02*
X123919D01*
X124311Y69193D01*
X121358Y66240D02*
X123917D01*
X124311Y66634D01*
X76772Y70011D02*
X77127Y70366D01*
X100492Y71752D02*
X107972D01*
X100394Y71653D02*
X100492Y71752D01*
X100000Y82284D02*
X106465Y75818D01*
X106859Y74311D02*
X107972D01*
X106465Y74705D02*
X106859Y74311D01*
X106465Y74705D02*
Y75818D01*
X72441Y82284D02*
X100000D01*
X69517Y76122D02*
X72441Y79046D01*
Y82284D01*
X69517Y67942D02*
Y76122D01*
X67714Y66140D02*
X69517Y67942D01*
X80420Y61916D02*
Y63235D01*
X80315Y58209D02*
Y61811D01*
X80420Y63235D02*
X81646Y64461D01*
X80315Y61811D02*
X80420Y61916D01*
X76398Y54291D02*
X80315Y58209D01*
X81646Y64461D02*
Y64961D01*
X76772Y61024D02*
Y70011D01*
X71398Y55650D02*
X76772Y61024D01*
X77127Y70366D02*
X81146D01*
X81646Y70866D01*
X66704Y66140D02*
X67714D01*
X65898Y64961D02*
Y65333D01*
X66704Y66140D01*
X65748Y76772D02*
X65898Y76622D01*
Y70866D02*
Y76622D01*
Y70366D02*
Y70866D01*
X63516Y67985D02*
X65898Y70366D01*
X63516Y59579D02*
Y67985D01*
X62366Y52621D02*
Y58429D01*
X62992Y47209D02*
Y51995D01*
X62366Y52621D02*
X62992Y51995D01*
X61398Y45615D02*
X62992Y47209D01*
X61398Y44291D02*
Y45615D01*
X62366Y58429D02*
X63516Y59579D01*
X71398Y44291D02*
Y55650D01*
X65898Y64961D02*
X66398Y64461D01*
Y54291D02*
Y64461D01*
D16*
X107972Y74311D02*
D03*
Y71752D02*
D03*
Y69193D02*
D03*
Y66634D02*
D03*
X124311Y74311D02*
D03*
Y71752D02*
D03*
Y69193D02*
D03*
Y66634D02*
D03*
D17*
X113142Y80315D02*
D03*
X119142D02*
D03*
D18*
X81646Y64961D02*
D03*
X87646D02*
D03*
X81646Y70866D02*
D03*
X87646D02*
D03*
X65898Y64961D02*
D03*
X71898D02*
D03*
X65898Y70866D02*
D03*
X71898D02*
D03*
D29*
X51181Y109646D02*
X78347Y136811D01*
X51181Y59508D02*
Y109646D01*
X45276Y123031D02*
X59055Y136811D01*
X45276Y50413D02*
Y123031D01*
X71898Y64961D02*
Y75441D01*
X73228Y76772D02*
X86614D01*
X87795Y67061D02*
Y75590D01*
Y65110D02*
Y67061D01*
X87927Y66929D02*
X97244D01*
X87795Y67061D02*
X87927Y66929D01*
X97244D02*
X100787Y63386D01*
X111068D02*
X116142Y68459D01*
Y71260D01*
X100787Y63386D02*
X111068D01*
X119193Y74311D02*
X120295D01*
X116142Y71260D02*
X119193Y74311D01*
X120295D02*
X124311D01*
X119142Y75464D02*
X120295Y74311D01*
X119142Y75464D02*
Y80315D01*
X83811Y61126D02*
X86930Y64245D01*
X87430D01*
X81398Y44291D02*
Y56229D01*
X83811Y58642D01*
Y61126D01*
X87430Y64245D02*
X87646Y64461D01*
Y64961D01*
X87795Y65110D01*
X86614Y76772D02*
X87795Y75590D01*
X71898Y75441D02*
X73228Y76772D01*
X51181Y59508D02*
X56398Y54291D01*
X45276Y50413D02*
X51398Y44291D01*
D30*
X38413Y39803D02*
X42783Y35433D01*
X95012D02*
X99382Y39803D01*
X42783Y35433D02*
X95012D01*
X36890Y39803D02*
X38413D01*
X99382D02*
X100906D01*
D31*
X43898Y11811D02*
D03*
X93898D02*
D03*
D32*
X36890Y39803D02*
D03*
X100906D02*
D03*
D33*
X51398Y44291D02*
D03*
D34*
X56398Y54291D02*
D03*
X61398Y44291D02*
D03*
X66398Y54291D02*
D03*
X71398Y44291D02*
D03*
X76398Y54291D02*
D03*
X81398Y44291D02*
D03*
X86398Y54291D02*
D03*
D35*
X11811Y173228D02*
D03*
X125984D02*
D03*
X11811Y100394D02*
D03*
X125984D02*
D03*
D36*
X58661Y136811D02*
D03*
X78347D02*
D03*
D37*
X129921Y41339D02*
D03*
X5906Y45276D02*
D03*
X129921Y5906D02*
D03*
X5906D02*
D03*
Y82677D02*
D03*
X35433D02*
D03*
X62992D02*
D03*
X108661Y80315D02*
D03*
X129921Y71653D02*
D03*
X102362Y68110D02*
D03*
X74803Y76772D02*
D03*
X92126Y61417D02*
D03*
X94488Y63583D02*
D03*
X100394Y71653D02*
D03*
X72441Y82284D02*
D03*
X80315Y61811D02*
D03*
X76772Y70472D02*
D03*
X65748Y76772D02*
D03*
M02*
